<svg xmlns="http://www.w3.org/2000/svg" xmlns:xlink="http://www.w3.org/1999/xlink" viewBox="0 0 512 512"><defs><linearGradient id="a" x1="256" x2="256" y1="-.974" y2="495.881" gradientUnits="userSpaceOnUse"><stop offset="0" stop-color="#2ab793"/><stop offset="1" stop-color="#2c98b5"/></linearGradient><linearGradient id="b" x1="252" x2="252" y1="-.974" y2="495.881" xlink:href="#a"/><linearGradient id="c" x1="276" x2="276" y1="-.974" y2="495.881" xlink:href="#a"/><linearGradient id="d" x1="244" x2="244" y1="-.974" y2="495.881" xlink:href="#a"/><linearGradient id="e" x1="255.272" x2="255.272" y1="-.974" y2="495.881" xlink:href="#a"/><linearGradient id="f" x1="320.517" x2="320.517" y1="-.974" y2="495.881" xlink:href="#a"/><linearGradient id="g" x1="288" x2="288" y1="-.974" y2="495.881" xlink:href="#a"/></defs><g data-name="/ GRADIENT"><path fill="url(#a)" d="M456 208h-8V86.627a23.844 23.844 0 0 0-7.03-16.97l-46.627-46.628A23.843 23.843 0 0 0 377.373 16H128a24.027 24.027 0 0 0-24 24v96H56a40.046 40.046 0 0 0-40 40v280a40.046 40.046 0 0 0 40 40h400a40.046 40.046 0 0 0 40-40V248a40.046 40.046 0 0 0-40-40ZM384 35.314 420.686 72H392a8.01 8.01 0 0 1-8-8ZM120 40a8.01 8.01 0 0 1 8-8h240v32a24.027 24.027 0 0 0 24 24h40v120H120ZM80 456a24 24 0 0 1-48 0V176a24.027 24.027 0 0 1 24-24h48v59.35A40.052 40.052 0 0 0 80 248Zm400 0a24.027 24.027 0 0 1-24 24H87.981A39.795 39.795 0 0 0 96 456V248a24.027 24.027 0 0 1 24-24h336a24.027 24.027 0 0 1 24 24Z"/><path fill="url(#b)" d="M136 96h232v16H136z"/><path fill="url(#c)" d="M136 136h280v16H136zM136 176h280v16H136z"/><path fill="url(#d)" d="M136 56h216v16H136z"/><path fill="url(#e)" d="m254.86 316.116-13.72-8.232-15.613 26.022a64.012 64.012 0 0 1 96.59-68.064l8.544-13.53a79.984 79.984 0 0 0-121.456 81.482l-21.089-12.654-8.232 13.72 46.86 28.116Z"/><path fill="url(#f)" d="m334.86 332.116 15.618-26.03a64.016 64.016 0 0 1-96.934 67.858l-8.626 13.475A80.012 80.012 0 0 0 368 320a80.763 80.763 0 0 0-1.171-13.773l21.055 12.633 8.232-13.72-46.86-28.116-28.116 46.86Z"/><path fill="url(#g)" d="M400 416H176a24 24 0 0 0 0 48h224a24 24 0 0 0 0-48Zm-219.314 32H176a8 8 0 0 1 0-16h20.686Zm48 0h-25.372l16-16h25.372Zm48 0h-25.372l16-16h25.372Zm48 0h-25.372l16-16h25.372ZM400 448h-52.686l16-16H400a8 8 0 0 1 0 16Z"/></g></svg>